<svg id="visual" viewBox="0 0 960 540" width="960" height="540" xmlns="http://www.w3.org/2000/svg" xmlns:xlink="http://www.w3.org/1999/xlink" version="1.1"><rect x="0" y="0" width="960" height="540" fill="#60c0d0"></rect><defs><linearGradient id="grad1_0" x1="43.8%" y1="100%" x2="100%" y2="0%"><stop offset="14.444444444444446%" stop-color="#d2dc02" stop-opacity="1"></stop><stop offset="85.55555555555554%" stop-color="#d2dc02" stop-opacity="1"></stop></linearGradient></defs><defs><linearGradient id="grad1_1" x1="43.8%" y1="100%" x2="100%" y2="0%"><stop offset="14.444444444444446%" stop-color="#d2dc02" stop-opacity="1"></stop><stop offset="85.55555555555554%" stop-color="#60c0d0" stop-opacity="1"></stop></linearGradient></defs><defs><linearGradient id="grad2_0" x1="0%" y1="100%" x2="56.3%" y2="0%"><stop offset="14.444444444444446%" stop-color="#d2dc02" stop-opacity="1"></stop><stop offset="85.55555555555554%" stop-color="#d2dc02" stop-opacity="1"></stop></linearGradient></defs><defs><linearGradient id="grad2_1" x1="0%" y1="100%" x2="56.3%" y2="0%"><stop offset="14.444444444444446%" stop-color="#60c0d0" stop-opacity="1"></stop><stop offset="85.55555555555554%" stop-color="#d2dc02" stop-opacity="1"></stop></linearGradient></defs><g transform="translate(960, 540)"><path d="M-324 0C-299.3 -36.3 -274.6 -72.5 -255.9 -106C-237.2 -139.5 -224.5 -170.2 -205.1 -205.1C-185.6 -239.9 -159.3 -278.8 -124 -299.3C-88.7 -319.8 -44.3 -321.9 0 -324L0 0Z" fill="#40db9c"></path><path d="M-162 0C-149.7 -18.1 -137.3 -36.3 -128 -53C-118.6 -69.7 -112.3 -85.1 -102.5 -102.5C-92.8 -119.9 -79.6 -139.4 -62 -149.7C-44.3 -159.9 -22.2 -161 0 -162L0 0Z" fill="#d2dc02"></path></g><g transform="translate(0, 0)"><path d="M324 0C325.3 47.2 326.7 94.3 299.3 124C272 153.7 216 165.9 178.2 178.2C140.4 190.5 120.8 203 94.1 227.3C67.5 251.6 33.7 287.8 0 324L0 0Z" fill="#40db9c"></path><path d="M162 0C162.7 23.6 163.3 47.2 149.7 62C136 76.8 108 82.9 89.1 89.1C70.2 95.3 60.4 101.5 47.1 113.6C33.7 125.8 16.9 143.9 0 162L0 0Z" fill="#d2dc02"></path></g></svg>